HIERARCHY
ROOT Hips
{
	OFFSET 0.000000 0.000000 0.000000
	CHANNELS 6 Xposition Yposition Zposition Xrotation Yrotation Zrotation
	JOINT LeftUpLeg_virtual
	{
		OFFSET 0.000000 0.000000 0.000000
		CHANNELS 3 Xrotation Yrotation Zrotation
		JOINT LeftUpLeg
		{
			OFFSET 10.205400 -3.823500 0.155100
			CHANNELS 3 Xrotation Yrotation Zrotation
			JOINT LeftLeg
			{
				OFFSET 0.708757 -12.982077 0.567790
				CHANNELS 3 Xrotation Yrotation Zrotation
				JOINT LeftFoot
				{
					OFFSET -0.708756 -10.717838 -2.184338
					CHANNELS 3 Xrotation Yrotation Zrotation
					JOINT LeftToeBase
					{
						OFFSET 0.108149 -7.191104 7.560241
						CHANNELS 3 Xrotation Yrotation Zrotation
						JOINT LeftToe_End
						{
							OFFSET 0.070230 0.081724 4.490308
							CHANNELS 3 Xrotation Yrotation Zrotation
							End Site
							{
								OFFSET 0 0 0
							}
						}
					}
				}
			}
		}
	}
	JOINT RightUpLeg_virtual
	{
		OFFSET 0.000000 0.000000 0.000000
		CHANNELS 3 Xrotation Yrotation Zrotation
		JOINT RightUpLeg
		{
			OFFSET -10.205400 -3.823500 0.005500
			CHANNELS 3 Xrotation Yrotation Zrotation
			JOINT RightLeg
			{
				OFFSET -0.708756 -12.982134 0.610632
				CHANNELS 3 Xrotation Yrotation Zrotation
				JOINT RightFoot
				{
					OFFSET 0.708754 -10.717769 -1.945823
					CHANNELS 3 Xrotation Yrotation Zrotation
					JOINT RightToeBase
					{
						OFFSET -0.108140 -7.191069 7.372968
						CHANNELS 3 Xrotation Yrotation Zrotation
						JOINT RightToe_End
						{
							OFFSET -0.070227 0.081735 4.479403
							CHANNELS 3 Xrotation Yrotation Zrotation
							End Site
							{
								OFFSET 0 0 0
							}
						}
					}
				}
			}
		}
	}
	JOINT Spine_virtual
	{
		OFFSET 0.000000 0.000000 0.000000
		CHANNELS 3 Xrotation Yrotation Zrotation
		JOINT Spine
		{
			OFFSET 0.000000 6.876099 0.125700
			CHANNELS 3 Xrotation Yrotation Zrotation
			JOINT Spine1
			{
				OFFSET 0.000000 5.730043 0.104720
				CHANNELS 3 Xrotation Yrotation Zrotation
				JOINT Spine1_split
				{
					OFFSET 0.000000 5.730043 0.104720
					CHANNELS 3 Xrotation Yrotation Zrotation
					JOINT Spine2
					{
						OFFSET 0.000000 5.730043 0.104720
						CHANNELS 3 Xrotation Yrotation Zrotation
						JOINT Neck_virtual
						{
							OFFSET 0.000000 0.000000 0.000000
							CHANNELS 3 Xrotation Yrotation Zrotation
							JOINT Neck
							{
								OFFSET 0.000000 10.314075 0.188496
								CHANNELS 3 Xrotation Yrotation Zrotation
								JOINT Head
								{
									OFFSET 0.000000 7.643700 -2.377400
									CHANNELS 3 Xrotation Yrotation Zrotation
									JOINT HeadTop_End
									{
										OFFSET 0.000000 43.788605 -13.619600
										CHANNELS 3 Xrotation Yrotation Zrotation
										End Site
										{
											OFFSET 0 0 0
										}
									}
								}
							}
						}
						JOINT LeftShoulder_virtual
						{
							OFFSET 0.000000 0.000000 0.000000
							CHANNELS 3 Xrotation Yrotation Zrotation
							JOINT LeftShoulder
							{
								OFFSET 2.196100 4.412489 0.087492
								CHANNELS 3 Xrotation Yrotation Zrotation
								JOINT LeftShoulder_split
								{
									OFFSET 2.196100 4.412489 0.087492
									CHANNELS 3 Xrotation Yrotation Zrotation
									JOINT LeftArm
									{
										OFFSET 8.771219 -2.981674 -0.026999
										CHANNELS 3 Xrotation Yrotation Zrotation
										JOINT LeftForeArm
										{
											OFFSET 8.512804 0.000000 -0.000000
											CHANNELS 3 Xrotation Yrotation Zrotation
											JOINT LeftHand
											{
												OFFSET 18.484802 0.000000 -0.000000
												CHANNELS 3 Xrotation Yrotation Zrotation
												End Site
												{
													OFFSET 0 0 0
												}
											}
										}
									}
								}
							}
						}
						JOINT RightShoulder_virtual
						{
							OFFSET 0.000000 0.000000 0.000000
							CHANNELS 3 Xrotation Yrotation Zrotation
							JOINT RightShoulder
							{
								OFFSET -2.196100 4.412496 0.070690
								CHANNELS 3 Xrotation Yrotation Zrotation
								JOINT RightShoulder_split
								{
									OFFSET -2.196100 4.412496 0.070690
									CHANNELS 3 Xrotation Yrotation Zrotation
									JOINT RightArm
									{
										OFFSET -8.771282 -2.981682 -0.094208
										CHANNELS 3 Xrotation Yrotation Zrotation
										JOINT RightForeArm
										{
											OFFSET -8.494598 0.000000 0.000000
											CHANNELS 3 Xrotation Yrotation Zrotation
											JOINT RightHand
											{
												OFFSET -18.483803 0.000000 0.000001
												CHANNELS 3 Xrotation Yrotation Zrotation
												End Site
												{
													OFFSET 0 0 0
												}
											}
										}
									}
								}
							}
						}
					}
				}
			}
		}
	}
}
MOTION
Frames: 5
Frame Time: 0.03333333
0.315232 33.370636 -19.228218 0.000000 0.000000 0.000000 171.471107 -68.202895 173.351226 -28.211104 9.719692 17.244814 40.866620 -0.124857 -1.451723 -8.415801 -2.164666 1.197048 -0.455260 6.561100 -7.684285 0.000000 0.000000 0.000000 170.793757 -65.800383 173.314288 -6.743979 -10.493962 6.845463 20.957360 7.127305 -3.492289 -15.512219 3.428855 -6.012426 -2.673283 -7.276139 -1.992736 0.000000 0.000000 0.000000 169.510733 -67.698465 171.307783 3.884924 2.832756 3.714055 -3.279388 1.447021 -1.894194 0.781456 -2.562300 0.480743 0.000000 0.000000 0.000000 -4.386792 1.817993 -1.801611 1.870577 18.415833 7.567901 0.707921 32.075118 -14.757916 0.000000 0.000000 0.000000 -4.965837 2.184683 -1.916711 1.208246 -0.003764 2.244419 1.194487 -0.616563 -1.790654 12.634898 -1.411860 -66.486373 8.002573 -20.632608 -8.285002 0.000000 0.000000 0.000000 -4.598950 1.945830 -2.519506 2.500156 -5.150636 18.387405 -5.318242 -1.646263 -1.404053 11.493083 31.473051 53.912322 15.820969 28.275860 -0.253896 0.000000 0.000000 0.000000 
-0.158569 33.506824 -19.959248 0.000000 0.000000 0.000000 171.895180 -62.574245 173.675414 -30.424531 2.582113 12.213007 40.279579 0.242018 -0.373524 -5.515615 -1.686025 0.295483 -1.573282 7.263451 -8.055722 0.000000 0.000000 0.000000 171.299819 -59.516315 173.876194 -6.543328 -7.724762 8.639721 20.858090 10.251074 -2.330815 -14.849576 3.309505 -8.025744 -2.671750 -7.080646 -2.179040 0.000000 0.000000 0.000000 170.984784 -61.590855 172.456157 4.152752 3.364879 3.586296 -3.222784 1.941375 -1.996381 0.811688 -2.418111 0.615331 0.000000 0.000000 0.000000 -4.316636 2.276112 -2.015601 1.844246 16.853171 7.517047 0.297008 29.198417 -13.682311 0.000000 0.000000 0.000000 -5.007038 2.654339 -2.046887 1.052024 0.155756 2.335686 1.398214 -0.897363 -1.630881 14.188829 -0.649652 -67.581682 9.189768 -19.898506 -8.520945 0.000000 0.000000 0.000000 -4.515257 2.412232 -2.696877 2.521744 -5.556487 18.240217 -5.092729 -1.717204 -0.959130 10.352206 33.519836 53.967842 16.132652 27.466725 -0.853594 0.000000 0.000000 0.000000 
-0.697682 33.585403 -20.759598 0.000000 0.000000 0.000000 172.068065 -56.831900 173.771337 -33.166306 -3.665609 7.475465 38.062773 -0.001719 0.842273 -2.572444 -1.522705 -1.862608 -3.769660 7.957860 -8.360007 0.000000 0.000000 0.000000 171.787112 -53.223341 174.450545 -6.085484 -5.040286 10.432179 21.581144 13.010943 -1.328405 -14.655822 3.132551 -10.516444 -2.258175 -6.853449 -2.214285 0.000000 0.000000 0.000000 172.101547 -55.472659 173.304097 4.400672 3.772505 3.232616 -3.051409 2.313351 -1.918356 0.780852 -2.065305 0.678558 0.000000 0.000000 0.000000 -4.127199 2.622250 -2.039016 1.851632 15.034114 7.058189 -0.410332 25.439364 -12.065685 0.000000 0.000000 0.000000 -4.961456 3.005012 -1.962264 0.890515 0.344584 2.275821 1.611011 -1.212840 -1.453144 15.436472 -0.106657 -68.747056 10.066037 -18.217062 -8.921675 0.000000 0.000000 0.000000 -4.346924 2.747961 -2.648002 2.591384 -5.970044 17.956902 -4.871782 -1.654639 -0.507682 8.988881 35.756512 54.330764 16.176490 26.305804 -1.353903 0.000000 0.000000 0.000000 
-1.279821 33.551208 -21.598568 0.000000 0.000000 0.000000 172.300046 -50.947382 174.019013 -36.268024 -8.526275 3.565742 34.696354 -0.710885 1.868632 0.533332 -1.577366 -4.785539 -5.460109 8.557656 -8.933994 0.000000 0.000000 0.000000 172.313857 -47.043126 175.056382 -5.677466 -2.659346 12.015762 23.346674 15.613339 -0.665858 -14.333608 3.000002 -13.015471 -2.251894 -6.578317 -2.377075 0.000000 0.000000 0.000000 173.057459 -49.641012 174.115182 4.723478 4.031344 2.699634 -2.771695 2.543833 -1.679393 0.860042 -1.581134 0.616502 0.000000 0.000000 0.000000 -3.823420 2.834453 -1.881532 1.899531 13.003194 6.255681 -1.231492 20.977275 -10.106150 0.000000 0.000000 0.000000 -4.823752 3.223618 -1.687646 0.744429 0.632214 2.055805 1.893199 -1.598144 -1.261742 16.377528 0.328356 -69.849749 10.552868 -16.212979 -9.440443 0.000000 0.000000 0.000000 -4.114018 2.935041 -2.407851 2.710488 -6.380942 17.534243 -4.594299 -1.477734 -0.054779 7.454944 38.030992 55.066064 15.997278 25.128235 -1.802211 0.000000 0.000000 0.000000 
-1.860231 33.415886 -22.559368 0.000000 0.000000 0.000000 172.629616 -45.069550 174.443209 -39.776956 -11.829550 0.725051 30.963293 -1.607622 2.440136 4.538469 -1.621799 -8.158527 -5.011986 8.922943 -10.011275 0.000000 0.000000 0.000000 172.878686 -41.123295 175.601992 -5.439041 -0.770013 13.203217 25.589266 18.207884 -0.341381 -13.547293 3.164933 -14.933918 -2.912887 -6.211179 -2.792799 0.000000 0.000000 0.000000 173.894854 -44.128681 174.919738 5.193432 4.142871 2.103356 -2.404515 2.640194 -1.335862 0.783166 -0.901937 0.502198 0.000000 0.000000 0.000000 -3.451216 2.914836 -1.585982 1.932558 10.813204 5.258613 -1.967313 16.086444 -8.020065 0.000000 0.000000 0.000000 -4.574061 3.324740 -1.293042 0.637128 1.033842 1.686406 2.184884 -2.116836 -1.100090 17.132430 0.740972 -70.764462 10.701223 -14.554904 -9.965741 0.000000 0.000000 0.000000 -3.820004 2.988395 -2.050280 2.854049 -6.795535 16.979850 -4.274978 -1.240747 0.328404 5.942200 40.202254 56.025545 15.669159 24.239344 -2.275244 0.000000 0.000000 0.000000 
